<svg width="23" height="27" viewBox="0 0 23 27" fill="none" xmlns="http://www.w3.org/2000/svg">
<g id="emprunt icon">
<path id="Vector" d="M3.19969 25.2652H2.86514C1.65174 25.2652 1.04569 25.2652 0.668672 24.8868C0.291657 24.5097 0.291656 23.9014 0.291656 22.6836V21.2476C0.291656 20.5786 0.291656 20.2441 0.462793 19.9445C0.63393 19.6462 0.892565 19.4951 1.40983 19.1929C4.81455 17.2054 9.64755 16.0871 12.8747 18.0177C13.0909 18.1482 13.2865 18.3057 13.4537 18.493C13.6265 18.6831 13.7597 18.906 13.8452 19.1485C13.9308 19.3911 13.9671 19.6484 13.952 19.9053C13.9369 20.1621 13.8707 20.4134 13.7573 20.6441C13.6438 20.8749 13.4855 21.0805 13.2916 21.2489C13.137 21.3964 12.9481 21.5029 12.7422 21.5588C12.8966 21.5407 13.0445 21.5201 13.1861 21.4981C14.3583 21.3109 15.3427 20.6806 16.2434 19.9975L18.5698 18.2347C18.9849 17.9317 19.4849 17.7685 19.9981 17.7685C20.5113 17.7685 21.0113 17.9317 21.4264 18.2347C22.1637 18.7939 22.3901 19.7147 21.9231 20.4663C21.3788 21.3419 20.6119 22.4615 19.8759 23.146C19.1386 23.8304 18.041 24.4425 17.1454 24.8765C16.152 25.3582 15.0557 25.6345 13.9401 25.8166C11.678 26.1834 9.32072 26.1266 7.08179 25.6642C5.80443 25.4006 4.50378 25.2661 3.19969 25.2652ZM3.61917 0.983899C3.14694 1.45785 2.97065 2.11131 2.90503 3.13282C3.6593 3.12246 4.37976 2.81704 4.91305 2.28157C5.44633 1.74611 5.75032 1.02289 5.76031 0.265869C4.74378 0.333023 4.0914 0.509948 3.61917 0.983899ZM17.552 0.983899C17.0798 0.509948 16.4287 0.333023 15.4109 0.26716C15.4212 1.02418 15.7255 1.74726 16.259 2.28248C16.7926 2.8177 17.5131 3.1228 18.2674 3.13282C18.2005 2.1126 18.0242 1.45785 17.552 0.983899ZM17.552 9.80172C17.0798 10.2757 16.4287 10.4526 15.4109 10.5185C15.4212 9.76144 15.7255 9.03836 16.259 8.50313C16.7926 7.96791 17.5131 7.66282 18.2674 7.65279C18.2005 8.67302 18.0242 9.32777 17.552 9.80172ZM3.61917 9.80172C4.0914 10.2757 4.74249 10.4526 5.76031 10.5185C5.74998 9.76144 5.44567 9.03836 4.91214 8.50313C4.37862 7.96791 3.65802 7.66282 2.90374 7.65279C2.97065 8.67302 3.14694 9.32777 3.61917 9.80172Z" fill="black"/>
<path id="Vector_2" fill-rule="evenodd" clip-rule="evenodd" d="M2.86514 5.07012C4.14489 5.07012 5.37222 4.5599 6.27713 3.65169C7.18205 2.74348 7.69042 1.51169 7.69042 0.227295H13.4808C13.4808 1.51169 13.9891 2.74348 14.894 3.65169C15.799 4.5599 17.0263 5.07012 18.306 5.07012V5.71583C17.0263 5.71583 15.799 6.22606 14.894 7.13426C13.9891 8.04247 13.4808 9.27426 13.4808 10.5587H7.69042C7.69042 9.27426 7.18205 8.04247 6.27713 7.13426C5.37222 6.22606 4.14489 5.71583 2.86514 5.71583V5.07012ZM10.5856 6.6844C10.9269 6.6844 11.2541 6.54834 11.4955 6.30615C11.7368 6.06396 11.8723 5.73548 11.8723 5.39298C11.8723 5.05047 11.7368 4.72199 11.4955 4.4798C11.2541 4.23762 10.9269 4.10156 10.5856 4.10156C10.2443 4.10156 9.91704 4.23762 9.67573 4.4798C9.43442 4.72199 9.29885 5.05047 9.29885 5.39298C9.29885 5.73548 9.43442 6.06396 9.67573 6.30615C9.91704 6.54834 10.2443 6.6844 10.5856 6.6844Z" fill="black"/>
</g>
</svg>
