<svg width="9" height="13" viewBox="0 0 9 13" fill="none" xmlns="http://www.w3.org/2000/svg">
<path id="Vector" d="M0.311778 12.0594C0.103926 11.8973 0 11.7054 0 11.4836C0 11.2619 0.103926 11.0702 0.311778 10.9085L6.40184 6.15935L0.290993 1.39396C0.0969975 1.24268 0 1.05357 0 0.82665C0 0.599726 0.103926 0.40522 0.311778 0.243132C0.51963 0.0810441 0.765726 0 1.05007 0C1.33441 0 1.58023 0.0810441 1.78753 0.243132L8.77135 5.7055C8.85449 5.77034 8.91352 5.84058 8.94844 5.91622C8.98336 5.99186 9.00054 6.0729 8.99999 6.15935C8.99999 6.2458 8.98253 6.32684 8.94761 6.40248C8.91269 6.47812 8.85394 6.54836 8.77135 6.6132L1.76674 12.0756C1.57275 12.2268 1.33358 12.3025 1.04924 12.3025C0.764895 12.3025 0.519075 12.2214 0.311778 12.0594Z" fill="black"/>
</svg>
