<svg width="23" height="23" viewBox="0 0 23 23" fill="none" xmlns="http://www.w3.org/2000/svg">
<path id="Vector" d="M19.2339 4.54705C17.4502 2.75276 15.0956 1.63808 12.5772 1.39568C12.5005 1.3877 12.4278 1.35747 12.3682 1.30871C12.3085 1.25995 12.2643 1.19479 12.2412 1.12127C12.1951 0.960266 12.0979 0.818653 11.9641 0.717841C11.8304 0.617029 11.6675 0.5625 11.5 0.5625C11.3325 0.5625 11.1696 0.617029 11.0359 0.717841C10.9022 0.818653 10.8049 0.960266 10.7588 1.12127C10.7357 1.19479 10.6916 1.25995 10.6319 1.30871C10.5722 1.35747 10.4995 1.3877 10.4229 1.39568C7.72559 1.66261 5.22351 2.92153 3.40169 4.92838C1.57987 6.93524 0.568089 9.54706 0.562509 12.2575C0.560397 12.3909 0.591624 12.5227 0.653358 12.641C0.715091 12.7592 0.805378 12.8602 0.916025 12.9347C1.0662 13.0329 1.24558 13.0764 1.42404 13.0579C1.6025 13.0394 1.76916 12.9601 1.896 12.8332C2.37063 12.3587 3.0141 12.092 3.68519 12.0914C4.35629 12.0909 5.00019 12.3566 5.47559 12.8303C5.54744 12.9034 5.63303 12.9617 5.72746 13.0017C5.82188 13.0417 5.92328 13.0626 6.02583 13.0633C6.12838 13.064 6.23004 13.0444 6.32499 13.0056C6.41994 12.9669 6.5063 12.9098 6.57911 12.8376C7.09805 12.3211 7.78515 12.0081 8.5154 11.9555C9.24565 11.9029 9.97051 12.1142 10.5581 12.551C10.608 12.5885 10.6485 12.637 10.6764 12.6929C10.7043 12.7487 10.7188 12.8103 10.7188 12.8727V20.071C10.7188 20.4909 10.3965 20.8522 9.97706 20.8737C9.87127 20.8791 9.76549 20.8629 9.66616 20.8261C9.56682 20.7893 9.47601 20.7327 9.39924 20.6597C9.32246 20.5867 9.26133 20.4989 9.21956 20.4015C9.17779 20.3042 9.15625 20.1994 9.15626 20.0934C9.15628 19.9896 9.13561 19.8869 9.09546 19.7912C9.05532 19.6954 8.9965 19.6087 8.92245 19.5359C8.8484 19.4632 8.7606 19.406 8.66417 19.3675C8.56774 19.3291 8.46463 19.3103 8.36085 19.3122C7.9214 19.32 7.58448 19.7082 7.59425 20.1471C7.60883 20.7539 7.85791 21.3313 8.28919 21.7583C8.72046 22.1853 9.3004 22.4286 9.90724 22.4372C11.2197 22.4538 12.2813 21.3664 12.2813 20.0539V12.8727C12.2812 12.8103 12.2957 12.7487 12.3236 12.6929C12.3515 12.637 12.392 12.5885 12.4419 12.551C13.0286 12.1148 13.7523 11.9035 14.4815 11.9553C15.2108 12.007 15.8973 12.3185 16.4165 12.8332C16.563 12.9796 16.7616 13.0618 16.9688 13.0618C17.1759 13.0618 17.3745 12.9796 17.521 12.8332C17.9963 12.3583 18.6407 12.0916 19.3125 12.0916C19.9844 12.0916 20.6287 12.3583 21.104 12.8332C21.2272 12.9563 21.388 13.0348 21.5608 13.0561C21.7337 13.0775 21.9087 13.0404 22.0581 12.9509C22.176 12.8779 22.2729 12.7757 22.3394 12.654C22.4059 12.5324 22.4397 12.3956 22.4375 12.257C22.4382 10.8241 22.1555 9.40526 21.6057 8.08206C21.0559 6.75887 20.2498 5.55748 19.2339 4.54705Z" fill="black"/>
</svg>
