<svg width="20" height="20" viewBox="0 0 20 20" fill="none" xmlns="http://www.w3.org/2000/svg">
<path id="Vector" d="M0 19.8491V17.7838H9V6.24378C8.56667 6.08888 8.19167 5.84793 7.875 5.52092C7.55833 5.19391 7.325 4.80666 7.175 4.35917H4L7 11.5878C7 12.4484 6.65833 13.1798 5.975 13.7822C5.29167 14.3846 4.46667 14.6858 3.5 14.6858C2.53333 14.6858 1.70833 14.3846 1.025 13.7822C0.341667 13.1798 0 12.4484 0 11.5878L3 4.35917H1V2.29384H7.175C7.375 1.69146 7.73333 1.19647 8.25 0.808875C8.76667 0.421281 9.35 0.227829 10 0.228517C10.65 0.228517 11.2333 0.422314 11.75 0.809907C12.2667 1.1975 12.625 1.69215 12.825 2.29384H19V4.35917H17L20 11.5878C20 12.4484 19.6583 13.1798 18.975 13.7822C18.2917 14.3846 17.4667 14.6858 16.5 14.6858C15.5333 14.6858 14.7083 14.3846 14.025 13.7822C13.3417 13.1798 13 12.4484 13 11.5878L16 4.35917H12.825C12.675 4.80666 12.4417 5.19391 12.125 5.52092C11.8083 5.84793 11.4333 6.08888 11 6.24378V17.7838H20V19.8491H0ZM14.625 11.5878H18.375L16.5 7.09573L14.625 11.5878ZM1.625 11.5878H5.375L3.5 7.09573L1.625 11.5878ZM10 4.35917C10.2833 4.35917 10.521 4.26004 10.713 4.06176C10.905 3.86349 11.0007 3.61841 11 3.32651C11 3.03392 10.904 2.78849 10.712 2.59022C10.52 2.39195 10.2827 2.29316 10 2.29384C9.71667 2.29384 9.479 2.39298 9.287 2.59125C9.095 2.78952 8.99933 3.03461 9 3.32651C9 3.6191 9.096 3.86453 9.288 4.0628C9.48 4.26107 9.71733 4.35986 10 4.35917Z" fill="black"/>
</svg>
