<svg width="22" height="20" viewBox="0 0 22 20" fill="none" xmlns="http://www.w3.org/2000/svg">
<path id="Vector" d="M3.66667 17.5V18.1562C3.66667 18.6771 3.49352 19.1146 3.14722 19.4688C2.80093 19.8229 2.36297 20 1.83334 20C1.32408 20 0.891003 19.8175 0.534114 19.4525C0.177225 19.0875 -0.000812031 18.645 2.7841e-06 18.125V8.75L2.56667 1.25C2.68889 0.875 2.90767 0.572917 3.223 0.34375C3.53834 0.114583 3.88993 0 4.27778 0H17.7222C18.1093 0 18.4609 0.114583 18.777 0.34375C19.0931 0.572917 19.3119 0.875 19.4333 1.25L22 8.75V18.1562C22 18.6771 21.8269 19.1146 21.4806 19.4688C21.1343 19.8229 20.6963 20 20.1667 20C19.6574 20 19.2247 19.8175 18.8687 19.4525C18.5126 19.0875 18.3341 18.645 18.3333 18.125V17.5H3.66667ZM3.42222 6.25H18.5778L17.2944 2.5H4.70556L3.42222 6.25ZM5.5 13.75C6.00926 13.75 6.44234 13.5675 6.79922 13.2025C7.15611 12.8375 7.33415 12.395 7.33334 11.875C7.33334 11.3542 7.15489 10.9113 6.798 10.5463C6.44111 10.1813 6.00845 9.99917 5.5 10C4.99074 10 4.55767 10.1825 4.20078 10.5475C3.84389 10.9125 3.66585 11.355 3.66667 11.875C3.66667 12.3958 3.84511 12.8387 4.202 13.2037C4.55889 13.5687 4.99156 13.7508 5.5 13.75ZM16.5 13.75C17.0093 13.75 17.4423 13.5675 17.7992 13.2025C18.1561 12.8375 18.3341 12.395 18.3333 11.875C18.3333 11.3542 18.1549 10.9113 17.798 10.5463C17.4411 10.1813 17.0084 9.99917 16.5 10C15.9907 10 15.5577 10.1825 15.2008 10.5475C14.8439 10.9125 14.6659 11.355 14.6667 11.875C14.6667 12.3958 14.8451 12.8387 15.202 13.2037C15.5589 13.5687 15.9916 13.7508 16.5 13.75Z" fill="black"/>
</svg>
