<svg width="24" height="18" viewBox="0 0 24 18" fill="none" xmlns="http://www.w3.org/2000/svg">
<path id="Vector" d="M21.871 5.25219C21.8323 5.1584 21.7916 5.06461 21.75 4.97082C21.1256 3.57527 20.1151 2.37427 18.8303 1.50063H20.9032C21.1086 1.50063 21.3055 1.42157 21.4507 1.28086C21.5959 1.14015 21.6774 0.949308 21.6774 0.750313C21.6774 0.551317 21.5959 0.360472 21.4507 0.219761C21.3055 0.0790504 21.1086 0 20.9032 0H10.8387C8.69816 0.00263413 6.63691 0.785348 5.06427 2.19272C3.49163 3.60009 2.52263 5.52917 2.34968 7.59692C1.68093 7.75803 1.08674 8.13071 0.66115 8.65596C0.235564 9.18122 0.0029047 9.82904 0 10.4969C0 10.6959 0.0815666 10.8867 0.226756 11.0274C0.371945 11.1681 0.568865 11.2472 0.774194 11.2472C0.979522 11.2472 1.17644 11.1681 1.32163 11.0274C1.46682 10.8867 1.54839 10.6959 1.54839 10.4969C1.54857 10.2233 1.62593 9.95491 1.77211 9.72084C1.91828 9.48676 2.12771 9.29588 2.37774 9.16882C2.57045 10.8522 3.29472 12.4369 4.45161 13.7063L5.6671 17.004C5.77455 17.2956 5.9725 17.548 6.23378 17.7263C6.49506 17.9046 6.80688 18.0002 7.12645 18H8.35742C8.67683 18 8.98843 17.9043 9.24952 17.726C9.51061 17.5477 9.70841 17.2955 9.81581 17.004L10.0016 16.4994H15.5468L15.7326 17.004C15.84 17.2955 16.0378 17.5477 16.2989 17.726C16.56 17.9043 16.8716 18 17.191 18H18.4219C18.7413 18 19.0529 17.9043 19.314 17.726C19.5751 17.5477 19.7729 17.2955 19.8803 17.004L21.449 12.7478H21.6774C22.2934 12.7478 22.8842 12.5107 23.3197 12.0885C23.7553 11.6664 24 11.0939 24 10.4969V7.49562C24.0001 6.93105 23.7813 6.38707 23.3869 5.97152C22.9926 5.55598 22.4515 5.29924 21.871 5.25219ZM14.7097 3.74406H10.8387C10.6334 3.74406 10.4365 3.66501 10.2913 3.5243C10.1461 3.38359 10.0645 3.19274 10.0645 2.99375C10.0645 2.79475 10.1461 2.60391 10.2913 2.4632C10.4365 2.32249 10.6334 2.24343 10.8387 2.24343H14.7097C14.915 2.24343 15.1119 2.32249 15.2571 2.4632C15.4023 2.60391 15.4839 2.79475 15.4839 2.99375C15.4839 3.19274 15.4023 3.38359 15.2571 3.5243C15.1119 3.66501 14.915 3.74406 14.7097 3.74406ZM17.4194 8.99625C17.1897 8.99625 16.9651 8.93024 16.7742 8.80657C16.5832 8.6829 16.4344 8.50713 16.3465 8.30148C16.2586 8.09583 16.2356 7.86953 16.2804 7.65121C16.3252 7.43289 16.4358 7.23235 16.5982 7.07495C16.7606 6.91755 16.9675 6.81036 17.1928 6.76694C17.4181 6.72351 17.6516 6.7458 17.8638 6.83098C18.076 6.91617 18.2573 7.06042 18.3849 7.2455C18.5125 7.43058 18.5806 7.64818 18.5806 7.87078C18.5806 8.16927 18.4583 8.45554 18.2405 8.66661C18.0227 8.87767 17.7273 8.99625 17.4194 8.99625Z" fill="black"/>
</svg>
